<?xml version="1.0" encoding="UTF-8"?>
<svg id="Layer_2" data-name="Layer 2" xmlns="http://www.w3.org/2000/svg" viewBox="0 0 103.51 103.51">
  <defs>
    <style>
      .cls-1 {
        fill: #00bafe;
      }
    </style>
  </defs>
  <g id="Layer_1-2" data-name="Layer 1">
    <g>
      <path class="cls-1" d="m51.75,0C23.17,0,0,23.17,0,51.75s23.17,51.75,51.75,51.75,51.75-23.17,51.75-51.75S80.34,0,51.75,0Zm27.07,68.58c-2.99,16.27-17.24,28.61-34.38,28.61-19.31,0-34.96-15.65-34.96-34.96,0-10.75,4.85-20.36,12.48-26.77C23.98,17.51,39.19,3.56,57.68,3.56c19.85,0,35.95,16.1,35.95,35.95,0,11.95-5.84,22.53-14.81,29.07Z"/>
      <path class="cls-1" d="m44.44,27.26c-8.56,0-16.4,3.08-22.48,8.19-.15,1.33-.23,2.68-.23,4.05,0,19.85,16.1,35.95,35.95,35.95,7.9,0,15.21-2.56,21.14-6.88.38-2.06.59-4.18.59-6.35,0-19.31-15.65-34.96-34.96-34.96Z"/>
    </g>
  </g>
</svg>